<?xml version="1.0" encoding="utf-8"?>
<!-- Generator: Adobe Illustrator 28.1.0, SVG Export Plug-In . SVG Version: 6.00 Build 0)  -->
<svg version="1.1" id="Layer_1" xmlns="http://www.w3.org/2000/svg" xmlns:xlink="http://www.w3.org/1999/xlink" x="0px" y="0px"
	 viewBox="0 0 21 20" style="enable-background:new 0 0 21 20;" xml:space="preserve">
<style type="text/css">
	.st0{fill:#FFFFFF;}
</style>
<path class="st0" d="M6.9,16.1c0,0.1-0.1,0.1-0.2,0.1c-0.1,0-0.2-0.1-0.2-0.1C6.4,16,6.5,16,6.6,16C6.8,15.9,6.9,16,6.9,16.1z
	 M5.6,15.9c0,0.1,0.1,0.2,0.2,0.2c0.1,0,0.2,0,0.3-0.1C6,16,6,15.9,5.8,15.8C5.7,15.8,5.6,15.8,5.6,15.9z M7.4,15.8
	c-0.1,0-0.2,0.1-0.2,0.2c0,0.1,0.1,0.1,0.2,0.1c0.1,0,0.2-0.1,0.2-0.2C7.6,15.9,7.5,15.8,7.4,15.8z M10.1,0C4.4,0,0,4.4,0,10.1
	c0,4.6,2.9,8.5,7,9.9c0.5,0.1,0.7-0.2,0.7-0.5c0-0.3,0-1.7,0-2.5c0,0-2.9,0.6-3.5-1.2c0,0-0.5-1.2-1.1-1.5c0,0-0.9-0.6,0.1-0.6
	c0,0,1,0.1,1.6,1.1c0.9,1.6,2.4,1.1,3,0.9c0.1-0.7,0.4-1.1,0.7-1.4c-2.3-0.3-4.6-0.6-4.6-4.6c0-1.1,0.3-1.7,1-2.4
	C4.6,6.8,4.3,5.7,4.8,4.3C5.7,4,7.7,5.4,7.7,5.4C8.5,5.2,9.4,5,10.3,5c0.9,0,1.8,0.1,2.6,0.4c0,0,2-1.4,2.9-1.1
	c0.6,1.4,0.2,2.5,0.1,2.8c0.7,0.7,1.1,1.3,1.1,2.4c0,4-2.4,4.3-4.7,4.6c0.4,0.3,0.7,0.9,0.7,1.9c0,1.4,0,3.1,0,3.5
	c0,0.3,0.2,0.6,0.7,0.5c4.1-1.4,6.9-5.3,6.9-9.9C20.5,4.4,15.9,0,10.1,0z M4,14.3c-0.1,0,0,0.1,0,0.2c0.1,0.1,0.2,0.1,0.2,0
	c0.1,0,0-0.1,0-0.2C4.2,14.2,4.1,14.2,4,14.3z M3.6,13.9c0,0.1,0,0.1,0.1,0.2c0.1,0,0.1,0,0.2,0c0-0.1,0-0.1-0.1-0.2
	C3.7,13.9,3.6,13.9,3.6,13.9z M4.9,15.4c-0.1,0.1,0,0.2,0.1,0.3c0.1,0.1,0.2,0.1,0.3,0c0.1-0.1,0-0.2-0.1-0.3
	C5.1,15.3,5,15.3,4.9,15.4z M4.4,14.8c-0.1,0-0.1,0.1,0,0.2c0.1,0.1,0.2,0.1,0.2,0.1c0.1-0.1,0.1-0.2,0-0.3
	C4.6,14.8,4.5,14.7,4.4,14.8z"/>
</svg>
