<?xml version="1.0" encoding="utf-8"?>
<!-- Generator: Adobe Illustrator 28.1.0, SVG Export Plug-In . SVG Version: 6.00 Build 0)  -->
<svg version="1.1" id="Layer_1" xmlns="http://www.w3.org/2000/svg" xmlns:xlink="http://www.w3.org/1999/xlink" x="0px" y="0px"
	 viewBox="0 0 205 46" style="enable-background:new 0 0 205 46;" xml:space="preserve">
<style type="text/css">
	.st0{fill:#FCB300;}
	.st1{fill:#FFFFFF;}
</style>
<g>
	<path class="st0" d="M43.5,16.1c-0.2-0.1-0.5-0.2-0.7-0.3C37.1,13.5,32.5,9,30.2,3.3c-0.1-0.2-0.2-0.4-0.3-0.7l0,0
		C29.2,1.1,26.4,0,23.1,0S17,1.1,16.2,2.7l0,0c-0.1,0.2-0.2,0.4-0.3,0.7C17.6,8,20,12.2,23,16c0.2,0.2,0.4,0.5,0.6,0.7
		s0.4,0.5,0.6,0.7l0,0c0.1,0.1,0.2,0.3,0.4,0.4c0.4,0.4,0.7,0.8,1.1,1.2c0.9,1,1.9,1.9,3,2.8c0.5,0.4,1,0.8,1.4,1.2
		c-1.6,1.3-3.1,2.7-4.6,4.2c-0.5,0.4-1.1,0.8-1.3,0.7l0.3,0.4l0.3,0.4c2.8,3.4,5,7.2,6.7,11.2c2.5-4.4,6.5-7.8,11.2-9.7
		c0.2-0.1,0.5-0.2,0.7-0.3c1.5-0.8,2.7-3.6,2.7-6.9C46.1,19.7,45,16.9,43.5,16.1z"/>
	<path class="st0" d="M22.5,29.3c-0.2-0.2-0.4-0.5-0.6-0.7l0,0c-0.1-0.1-0.2-0.3-0.4-0.4c-0.4-0.4-0.7-0.8-1.1-1.2
		c-0.9-1-1.9-1.9-3-2.8c-0.5-0.4-1-0.8-1.4-1.2c1.6-1.3,3.1-2.7,4.5-4.1c0.5-0.5,1.2-0.9,1.3-0.7l-0.3-0.4l-0.3-0.4
		c-2.8-3.4-5-7.2-6.7-11.2C12,10.6,8,14,3.3,15.9c-0.2,0.1-0.5,0.2-0.7,0.3C1.1,16.9,0,19.7,0,23s1.1,6.1,2.7,6.9
		c0.2,0.1,0.5,0.2,0.7,0.3C9,32.5,13.6,37,15.9,42.7c0.1,0.2,0.2,0.4,0.3,0.7l0,0c0.8,1.5,3.6,2.7,6.9,2.7s6.1-1.1,6.9-2.7l0,0
		c0.1-0.2,0.2-0.4,0.3-0.7c-1.7-4.6-4.1-8.8-7.1-12.6C22.9,29.8,22.7,29.6,22.5,29.3z"/>
</g>
<path class="st1" d="M64.8,12.8h-4.1h-3.6V32h3.6v-6.6h4.1c4,0,6.4-2.6,6.4-6.3C71.2,15.2,68.8,12.8,64.8,12.8z M64.1,22.3h-3.4
	v-6.4h3.4c2.3,0,3.3,1.5,3.3,3.1C67.4,20.8,66.4,22.3,64.1,22.3z M72,25.5c0,4,2.7,6.8,6.8,6.8c4.1,0,6.8-2.8,6.8-6.8
	s-2.7-6.8-6.8-6.8C74.7,18.6,72,21.5,72,25.5z M75.5,25.5c0-2.2,1.3-3.8,3.4-3.8c2,0,3.4,1.5,3.4,3.8c0,2.2-1.3,3.8-3.4,3.8
	C76.8,29.2,75.5,27.7,75.5,25.5z M88,32h3.4V12.4H88V32z M103.7,19l-3.5,9.4L96.7,19h-3.6l5.6,13.8l-0.4,1.1
	c-0.6,1.8-2.3,1.7-3.7,0.8l-0.9,3.1c2.5,0.9,5.9,1.4,7.5-2.7l6.2-16.1C107.4,19,103.7,19,103.7,19z M133.3,22.4
	c0-5.8-3.7-9.9-9.4-9.9c-5.6,0-9.3,4.2-9.3,9.9c0,5.8,3.7,9.9,9.3,9.9c1.6,0,3.1-0.4,4.4-1l0.7,0.8h3.7l-2.1-2.4
	C132.3,27.9,133.3,25.3,133.3,22.4z M123.9,28.8c-3.5,0-5.6-2.5-5.6-6.5s2.2-6.5,5.6-6.5s5.6,2.5,5.6,6.5c0,1.9-0.5,3.4-1.4,4.5
	l-1-1.2h-3.8l2.5,2.8C125.2,28.7,124.6,28.8,123.9,28.8z M151.6,19l-2.5,8.2l-2.4-8.2h-3.5l-2.6,8.1l-2.4-8.1h-3.7l4.3,13h3.4
	l2.7-7.9l2.6,7.9h3.2l4.6-13H151.6z M168.9,25.5c0-4.2-2.6-6.9-6.5-6.9c-4,0-6.6,2.8-6.6,6.9s2.7,6.8,6.5,6.8c2.7,0,5-1.4,6-3.6
	l-2.8-1.1c-0.6,1.1-1.6,1.9-3.1,1.9c-1.6,0-3.1-0.8-3.3-2.7h9.8L168.9,25.5L168.9,25.5z M162.4,21.4c1.7,0,2.9,0.9,3,2.9h-6.3
	C159.5,22.5,160.6,21.4,162.4,21.4z M174.6,20.5l-0.2-1.5h-3.2v13h3.5v-6.2c0-2.9,1.8-4.4,4.9-3.7V19
	C177.7,18.5,175.4,18.9,174.6,20.5z M199.2,19l-3.4,9.8l-3.6-9.8h-1H187v-4h-3.4v4h-2.5v2.8h2.5V32h3.4V21.8h2.5l4.5,11.5l-0.2,0.4
	c-0.8,2.1-2.9,1.7-3.9,0.9l-0.9,2.9c2.1,1,6.2,1.5,7.9-3l5.8-15.6L199.2,19L199.2,19z"/>
</svg>
