<?xml version="1.0" standalone="no"?>
<!DOCTYPE svg PUBLIC "-//W3C//DTD SVG 20010904//EN"
 "http://www.w3.org/TR/2001/REC-SVG-20010904/DTD/svg10.dtd">
<svg version="1.0" xmlns="http://www.w3.org/2000/svg"
 width="700.000000pt" height="700.000000pt" viewBox="0 0 700.000000 700.000000"
 preserveAspectRatio="xMidYMid meet">
<metadata>
Created by potrace 1.14, written by Peter Selinger 2001-2017
</metadata>
<g transform="translate(0.000000,700.000000) scale(0.100000,-0.100000)"
fill="#000000" stroke="none">
<path d="M3338 6995 c-1 -1 -37 -6 -78 -10 -41 -4 -77 -9 -80 -10 -3 -2 -26
-6 -50 -10 -53 -8 -219 -51 -258 -67 -165 -69 -256 -125 -335 -204 -48 -49
-117 -173 -117 -210 0 -38 163 -425 273 -649 57 -115 97 -190 202 -380 72
-131 323 -526 345 -545 4 -3 21 -27 40 -55 110 -163 322 -423 460 -565 30 -31
98 -103 150 -160 106 -116 107 -117 212 -215 105 -99 138 -128 268 -235 63
-51 134 -112 157 -134 l42 -41 -107 -88 c-128 -106 -258 -225 -445 -407 -151
-147 -230 -211 -294 -237 l-41 -18 36 -50 c20 -27 64 -84 98 -125 202 -247
468 -646 636 -955 85 -155 273 -543 316 -649 9 -24 18 -34 20 -25 5 16 200
311 231 349 11 14 41 52 68 85 69 87 104 125 238 261 207 209 425 378 715 552
46 28 375 192 385 192 4 0 21 6 38 14 18 8 62 28 98 44 214 95 386 437 427
847 9 91 9 340 0 435 -35 353 -166 667 -332 789 -28 21 -107 62 -176 91 -203
85 -390 181 -513 262 -32 21 -60 38 -63 38 -2 0 -43 28 -91 62 -491 346 -860
772 -1122 1295 -34 67 -61 124 -61 127 0 3 -15 38 -34 78 -18 40 -39 89 -46
109 -20 55 -73 124 -137 174 -59 47 -201 122 -283 149 -71 24 -240 64 -300 71
-30 4 -64 9 -75 12 -23 5 -411 13 -417 8z"/>
<path d="M2190 6042 c0 -16 -133 -217 -215 -327 -368 -490 -853 -866 -1440
-1115 -55 -23 -125 -55 -155 -70 -178 -90 -323 -399 -367 -785 -10 -80 -9
-392 0 -480 31 -286 138 -567 270 -706 57 -60 99 -87 222 -139 176 -76 347
-161 463 -232 57 -35 112 -68 122 -74 23 -13 38 -23 170 -120 140 -103 253
-199 380 -325 337 -332 566 -670 766 -1131 73 -170 105 -215 202 -289 125 -94
360 -189 537 -215 17 -3 36 -7 43 -9 34 -12 193 -20 362 -19 280 2 513 51 711
149 158 78 243 155 302 274 36 74 39 85 27 115 -5 11 -25 64 -45 116 -21 52
-46 115 -57 139 -10 24 -28 67 -39 95 -66 166 -328 664 -457 866 -172 271
-409 604 -498 700 -23 25 -69 79 -104 120 -131 158 -494 532 -610 629 -29 25
-58 50 -64 55 -6 6 -34 29 -61 51 -28 21 -52 42 -55 45 -3 3 -25 22 -50 42
-25 20 -62 52 -83 70 l-38 34 47 39 c64 53 198 170 254 221 25 23 59 54 75 69
17 15 102 96 191 181 88 84 179 167 201 183 39 28 81 47 96 43 4 -1 7 0 7 3 0
7 -77 111 -103 140 -86 94 -338 450 -463 651 -38 61 -74 119 -81 130 -91 142
-342 634 -418 817 -24 58 -45 85 -45 59z"/>
</g>
</svg>
