<svg width="39" height="33" viewBox="0 0 39 33" fill="none" xmlns="http://www.w3.org/2000/svg">
<g clip-path="url(#clip0_2_21)">
<path d="M23.9964 6.9489H15.3133C14.3534 6.9489 13.5756 6.17108 13.5756 5.21125C13.5756 4.25313 14.3534 3.47531 15.3133 3.47531H23.9964C24.9562 3.47531 25.734 4.25313 25.734 5.21125C25.734 6.17108 24.9562 6.9489 23.9964 6.9489ZM0.550049 0V30.3952C0.550049 31.8273 1.72279 33 3.15481 33H36.1548C37.5868 33 38.7596 31.8273 38.7596 30.3952V0H0.550049Z" fill="#EEEEEE"/>
<path d="M19.6558 13.8944C13.8315 13.8944 8.71301 16.9112 5.77686 21.4683V32.9983H13.8212L19.6558 22.8917H34.3554C31.6236 17.5517 26.0655 13.8944 19.6558 13.8944Z" fill="#DB4437"/>
<path d="M5.77157 21.4752C4.11633 24.0473 3.15479 27.1088 3.15479 30.3952C3.15479 31.2812 3.22518 32.1518 3.36083 33H12.4921L5.77157 21.4752Z" fill="#0F9D58"/>
<path d="M36.1549 30.3952C36.1549 27.6943 35.5059 25.1445 34.3554 22.8934H19.6558L25.4903 33H35.9489C36.0845 32.1518 36.1549 31.2812 36.1549 30.3952Z" fill="#FFCD40"/>
<path d="M19.6556 22.8934C15.5124 22.8934 12.1555 26.252 12.1555 30.3952C12.1555 31.3121 12.3204 32.1895 12.6208 33H14.2486C13.8674 32.2119 13.6545 31.3276 13.6545 30.3952C13.6545 27.0796 16.3417 24.3941 19.6556 24.3941C22.9695 24.3941 25.6567 27.0796 25.6567 30.3952C25.6567 31.3293 25.4438 32.2119 25.0626 33H26.6904C26.9908 32.1878 27.1557 31.3104 27.1557 30.3952C27.1557 26.252 23.7971 22.8934 19.6556 22.8934Z" fill="#F1F1F1"/>
<path d="M19.6556 24.3941C16.3417 24.3941 13.6545 27.0796 13.6545 30.3952C13.6545 31.3293 13.8675 32.2119 14.2486 33H25.0626C25.4438 32.2119 25.6567 31.3276 25.6567 30.3952C25.655 27.0796 22.9695 24.3941 19.6556 24.3941Z" fill="#4285F4"/>
<path opacity="0.05" d="M0.550049 0V16.5009H38.7596V0H0.550049ZM23.9964 6.9489H15.3133C14.3534 6.9489 13.5756 6.17108 13.5756 5.21125C13.5756 4.25313 14.3534 3.47531 15.3133 3.47531H23.9981C24.9579 3.47531 25.7358 4.25313 25.7358 5.21125C25.734 6.17108 24.9562 6.9489 23.9964 6.9489Z" fill="#212121"/>
<path opacity="0.02" d="M38.7596 16.2828H0.550049V16.5008H38.7596V16.2828Z" fill="#212121"/>
<path opacity="0.05" d="M38.7596 16.5009H0.550049V16.7189H38.7596V16.5009Z" fill="white"/>
<path opacity="0.02" d="M0.550049 0V0.218065H38.7596V0H0.550049ZM23.9964 6.9489H15.3133C14.3912 6.9489 13.6374 6.22774 13.5825 5.32114C13.5773 5.3572 13.5756 5.39326 13.5756 5.42931C13.5756 6.38915 14.3534 7.16525 15.3133 7.16525H23.9964C24.9562 7.16525 25.734 6.38915 25.734 5.42931C25.734 5.39326 25.7323 5.3572 25.7272 5.32114C25.6722 6.22603 24.9202 6.9489 23.9964 6.9489Z" fill="#212121"/>
<path opacity="0.1" d="M36.1548 32.7819H3.15481C1.72279 32.7819 0.550049 31.6109 0.550049 30.1772V30.3952C0.550049 31.8272 1.72279 33 3.15481 33H36.1548C37.5868 33 38.7596 31.8272 38.7596 30.3952V30.1772C38.7596 31.6109 37.5868 32.7819 36.1548 32.7819ZM15.3133 3.47359H23.9964C24.9184 3.47359 25.6722 4.19475 25.7272 5.10135C25.7289 5.0653 25.734 5.02924 25.734 4.99318C25.734 4.03335 24.9562 3.25552 23.9964 3.25552H15.3133C14.3534 3.25552 13.5756 4.03335 13.5756 4.99318C13.5756 5.02924 13.5773 5.0653 13.5825 5.10135C13.6374 4.19475 14.3895 3.47359 15.3133 3.47359Z" fill="#231F20"/>
</g>
<defs>
<clipPath id="clip0_2_21">
<rect width="38.2095" height="33" fill="white" transform="translate(0.550049)"/>
</clipPath>
</defs>
</svg>
